<svg width="201" height="201" viewBox="0 0 201 201" fill="none" xmlns="http://www.w3.org/2000/svg">
<path d="M144.238 77.6119L98.801 123.049L87.4415 134.409L76.086 123.049L57.1525 104.116L68.512 92.7564L87.4455 111.69L132.879 66.2524L144.238 77.6119Z" fill="#308CFB"/>
<path d="M39.172 104.081H7.53149C6.53693 104.081 5.5831 103.686 4.87984 102.983C4.17658 102.279 3.78149 101.326 3.78149 100.331C3.78149 99.3364 4.17658 98.3826 4.87984 97.6793C5.5831 96.9761 6.53693 96.581 7.53149 96.581H39.172C40.1666 96.581 41.1204 96.9761 41.8236 97.6793C42.5269 98.3826 42.922 99.3364 42.922 100.331C42.922 101.326 42.5269 102.279 41.8236 102.983C41.1204 103.686 40.1666 104.081 39.172 104.081ZM193.854 104.081H162.219C161.726 104.081 161.238 103.984 160.783 103.796C160.328 103.607 159.915 103.331 159.567 102.983C159.218 102.635 158.942 102.221 158.754 101.766C158.565 101.311 158.468 100.823 158.469 100.331C158.469 99.3364 158.864 98.3826 159.567 97.6793C160.27 96.9761 161.224 96.581 162.219 96.581H193.854C194.848 96.581 195.802 96.9761 196.505 97.6793C197.208 98.3826 197.604 99.3364 197.604 100.331C197.604 101.326 197.208 102.279 196.505 102.983C195.802 103.686 194.848 104.081 193.854 104.081ZM100.695 42.5575C99.7009 42.5575 98.7471 42.1624 98.0438 41.4591C97.3406 40.7559 96.9455 39.8021 96.9455 38.8075V7.16699C96.9455 6.17243 97.3406 5.2186 98.0438 4.51534C98.7471 3.81208 99.7009 3.41699 100.695 3.41699C101.69 3.41699 102.644 3.81208 103.347 4.51534C104.05 5.2186 104.445 6.17243 104.445 7.16699V38.8075C104.445 39.8021 104.05 40.7559 103.347 41.4591C102.644 42.1624 101.69 42.5575 100.695 42.5575ZM100.695 197.484C99.7009 197.484 98.7471 197.089 98.0438 196.386C97.3406 195.683 96.9455 194.729 96.9455 193.734V161.854C96.9455 160.859 97.3406 159.906 98.0438 159.202C98.7471 158.499 99.7009 158.104 100.695 158.104C102.767 158.104 104.445 159.783 104.445 161.854V193.734C104.445 194.729 104.05 195.683 103.347 196.386C102.644 197.089 101.69 197.484 100.695 197.484ZM166.794 169.736C166.301 169.736 165.814 169.639 165.358 169.451C164.903 169.263 164.49 168.986 164.142 168.637L141.767 146.262C141.064 145.559 140.669 144.605 140.669 143.611C140.669 142.616 141.064 141.662 141.767 140.959C142.47 140.256 143.424 139.861 144.419 139.861C145.413 139.861 146.367 140.256 147.07 140.959L169.445 163.334C169.97 163.858 170.327 164.527 170.472 165.254C170.616 165.981 170.542 166.735 170.258 167.421C169.974 168.106 169.494 168.691 168.877 169.103C168.261 169.515 167.536 169.735 166.794 169.736ZM33.1535 168.291C32.4119 168.291 31.6869 168.071 31.0703 167.659C30.4536 167.247 29.973 166.661 29.6892 165.976C29.4054 165.291 29.3312 164.537 29.4758 163.809C29.6205 163.082 29.9776 162.414 30.502 161.889L52.908 139.484C53.6153 138.8 54.5629 138.421 55.5465 138.43C56.5302 138.438 57.4712 138.833 58.1668 139.528C58.8623 140.224 59.2568 141.165 59.265 142.149C59.2733 143.132 58.8948 144.08 58.211 144.787L35.805 167.193C35.4572 167.541 35.0439 167.818 34.5888 168.006C34.1338 168.195 33.646 168.292 33.1535 168.291ZM142.487 58.935C141.745 58.935 141.02 58.7151 140.404 58.3031C139.787 57.8911 139.306 57.3055 139.022 56.6202C138.738 55.935 138.664 55.181 138.809 54.4536C138.953 53.7262 139.311 53.058 139.835 52.5335L162.206 30.162C162.911 29.4638 163.863 29.073 164.855 29.0751C165.846 29.0772 166.797 29.4721 167.498 30.1733C168.199 30.8745 168.594 31.825 168.597 32.8167C168.599 33.8084 168.208 34.7606 167.51 35.465L145.139 57.8365C144.791 58.1852 144.377 58.4618 143.922 58.6503C143.467 58.8388 142.98 58.9356 142.487 58.935ZM57.1195 60.6505C56.6269 60.6512 56.1391 60.5545 55.6841 60.3659C55.229 60.1774 54.8158 59.9008 54.468 59.552L32.1215 37.206C31.4183 36.5027 31.0233 35.549 31.0233 34.5545C31.0233 33.56 31.4183 32.6062 32.1215 31.903C32.8247 31.1998 33.7785 30.8048 34.773 30.8048C35.7675 30.8048 36.7212 31.1998 37.4245 31.903L59.7705 54.249C60.2948 54.7734 60.6519 55.4415 60.7966 56.1689C60.9413 56.8962 60.8671 57.6501 60.5834 58.3353C60.2996 59.0204 59.8191 59.6061 59.2025 60.0182C58.586 60.4303 57.8611 60.6503 57.1195 60.6505Z" fill="#61A8FB"/>
<path d="M77.463 47.0986C76.7123 47.0986 75.9788 46.8733 75.3575 46.452C74.7362 46.0306 74.2557 45.4325 73.978 44.7351L68.076 29.9151C67.708 28.991 67.7221 27.9587 68.1153 27.0451C68.5085 26.1315 69.2485 25.4115 70.1725 25.0436C71.0965 24.6756 72.1288 24.6897 73.0424 25.0829C73.956 25.4761 74.676 26.216 75.044 27.1401L80.946 41.9601C81.1727 42.5289 81.2567 43.1447 81.1906 43.7535C81.1244 44.3623 80.9102 44.9457 80.5666 45.4526C80.223 45.9595 79.7605 46.3746 79.2195 46.6615C78.6784 46.9484 78.0754 47.0985 77.463 47.0986ZM43.425 81.5576C42.9726 81.5574 42.524 81.4751 42.101 81.3146L28.8965 76.3271C28.4358 76.1531 28.0138 75.8901 27.6548 75.5531C27.2957 75.216 27.0066 74.8115 26.8039 74.3627C26.6012 73.9139 26.4888 73.4296 26.4733 72.9374C26.4578 72.4452 26.5394 71.9547 26.7135 71.4941C26.8874 71.0334 27.1504 70.6114 27.4875 70.2524C27.8245 69.8933 28.229 69.6042 28.6778 69.4015C29.1266 69.1987 29.6109 69.0864 30.1031 69.0709C30.5954 69.0554 31.0858 69.137 31.5465 69.3111L44.751 74.2986C45.2117 74.4725 45.6336 74.7355 45.9927 75.0726C46.3517 75.4096 46.6409 75.8141 46.8436 76.2629C47.0463 76.7117 47.1586 77.196 47.1741 77.6882C47.1896 78.1804 47.108 78.6709 46.934 79.1316C46.6647 79.8445 46.1847 80.4585 45.5579 80.8919C44.931 81.3253 44.187 81.5575 43.425 81.5576ZM30.2245 134.296C29.3997 134.297 28.5976 134.026 27.9424 133.525C27.2871 133.024 26.8153 132.321 26.5999 131.525C26.3846 130.729 26.4377 129.884 26.7511 129.121C27.0645 128.358 27.6207 127.719 28.3335 127.305L41.538 119.614C42.3969 119.121 43.4159 118.988 44.3725 119.244C45.3292 119.499 46.1458 120.123 46.6442 120.979C47.1426 121.834 47.2824 122.853 47.033 123.811C46.7836 124.769 46.1653 125.59 45.313 126.094L32.1085 133.785C31.5369 134.119 30.8867 134.296 30.2245 134.296ZM69.0485 174.159C68.4328 174.158 67.8267 174.007 67.2836 173.717C66.7404 173.427 66.277 173.008 65.9343 172.496C65.5915 171.985 65.38 171.397 65.3183 170.784C65.2566 170.172 65.3466 169.554 65.5805 168.984L71.414 154.769C71.6008 154.313 71.8756 153.899 72.2227 153.55C72.5698 153.2 72.9823 152.923 73.4367 152.733C73.8911 152.543 74.3784 152.444 74.8709 152.442C75.3634 152.441 75.8514 152.536 76.307 152.724C76.7626 152.911 77.1769 153.185 77.5262 153.532C77.8756 153.88 78.1532 154.292 78.3431 154.746C78.5331 155.201 78.6316 155.688 78.6332 156.181C78.6349 156.673 78.5394 157.161 78.3525 157.617L72.519 171.832C72.2365 172.52 71.7556 173.109 71.1377 173.523C70.5197 173.937 69.7925 174.159 69.0485 174.159ZM132.684 174.159C131.953 174.159 131.238 173.945 130.626 173.544C130.015 173.143 129.534 172.572 129.242 171.902L123.067 157.687C122.677 156.775 122.663 155.746 123.029 154.825C123.394 153.903 124.11 153.164 125.02 152.769C125.929 152.374 126.958 152.355 127.881 152.717C128.805 153.078 129.547 153.791 129.946 154.699L136.121 168.914C136.369 169.484 136.472 170.107 136.419 170.727C136.366 171.347 136.16 171.944 135.819 172.464C135.478 172.984 135.013 173.412 134.465 173.707C133.918 174.003 133.306 174.158 132.684 174.159ZM170.623 132.082C170.111 132.082 169.605 131.977 169.136 131.773L156.476 126.297C156.021 126.103 155.609 125.821 155.264 125.468C154.918 125.115 154.646 124.696 154.462 124.237C154.279 123.778 154.188 123.288 154.195 122.793C154.202 122.299 154.307 121.811 154.503 121.357C154.699 120.904 154.983 120.493 155.338 120.15C155.694 119.806 156.114 119.536 156.574 119.356C157.034 119.175 157.525 119.087 158.019 119.097C158.514 119.107 159.001 119.214 159.453 119.413L172.113 124.89C172.906 125.232 173.556 125.837 173.954 126.603C174.352 127.368 174.473 128.248 174.298 129.093C174.123 129.938 173.662 130.697 172.992 131.241C172.323 131.786 171.486 132.083 170.623 132.082ZM156.92 79.0636C156.193 79.0638 155.48 78.8522 154.871 78.4546C154.261 78.0569 153.78 77.4903 153.487 76.8241C153.086 75.9139 153.063 74.8818 153.423 73.9547C153.783 73.0276 154.497 72.2815 155.407 71.8806L169.113 65.8436C170.021 65.4573 171.045 65.4443 171.962 65.8072C172.879 66.1702 173.617 66.88 174.014 67.7828C174.412 68.6856 174.438 69.7087 174.086 70.6305C173.735 71.5523 173.035 72.2985 172.137 72.7076L158.43 78.7446C157.955 78.9547 157.441 79.0633 156.92 79.0636ZM125.465 47.7496C124.882 47.7498 124.307 47.614 123.785 47.353C123.264 47.0919 122.81 46.7127 122.461 46.2457C122.111 45.7786 121.876 45.2364 121.773 44.6623C121.67 44.0882 121.702 43.498 121.867 42.9386L126.427 27.4681C127.013 25.4816 129.098 24.3441 131.085 24.9316C132.039 25.2128 132.842 25.8614 133.318 26.7348C133.793 27.6081 133.903 28.6346 133.621 29.5886L129.061 45.0591C128.832 45.8353 128.358 46.5166 127.71 47.0015C127.062 47.4864 126.275 47.7488 125.465 47.7496Z" fill="#84B9FB"/>
</svg>
