<svg width="390" height="121" viewBox="0 0 390 121" fill="none" xmlns="http://www.w3.org/2000/svg">
<g opacity="0.7">
<path d="M0 40C22.0914 40 40 57.9086 40 80H0V40Z" fill="#C4CBEA"/>
<path d="M40 120C17.9086 120 0 102.091 0 80H40V120Z" fill="#4F62C1"/>
<path d="M40 80C62.0914 80 80 97.9086 80 120H40V80Z" fill="#6C7CCB"/>
<path d="M40 0C62.0914 0 80 17.9086 80 40H40V0Z" fill="#C4CBEA"/>
<path d="M40 40C17.9086 40 0 22.0914 0 0H40V40Z" fill="#4F62C1"/>
<path d="M80 80C57.9086 80 40 62.0914 40 40H80V80Z" fill="#6C7CCB"/>
<path d="M88 41H108C119.046 41 128 49.9543 128 61V81H108C96.9543 81 88 72.0457 88 61V41Z" fill="#6C7CCB"/>
<path d="M168 121H148C136.954 121 128 112.046 128 101V81H148C159.046 81 168 89.9543 168 101V121Z" fill="#4F62C1"/>
<path d="M88 121H108C119.046 121 128 112.046 128 101V81H108C96.9543 81 88 89.9543 88 101V121Z" fill="#C4CBEA"/>
<path d="M390 40C367.909 40 350 57.9086 350 80H390V40Z" fill="#C4CBEA"/>
<path d="M350 120C372.091 120 390 102.091 390 80H350V120Z" fill="#4F62C1"/>
<path d="M350 80C327.909 80 310 97.9086 310 120H350V80Z" fill="#6C7CCB"/>
<path d="M350 0C327.909 0 310 17.9086 310 40H350V0Z" fill="#C4CBEA"/>
<path d="M350 40C372.091 40 390 22.0914 390 0H350V40Z" fill="#4F62C1"/>
<path d="M310 80C332.091 80 350 62.0914 350 40H310V80Z" fill="#6C7CCB"/>
<path d="M302 41H282C270.954 41 262 49.9543 262 61V81H282C293.046 81 302 72.0457 302 61V41Z" fill="#6C7CCB"/>
<path d="M222 121H242C253.046 121 262 112.046 262 101V81H242C230.954 81 222 89.9543 222 101V121Z" fill="#4F62C1"/>
<path d="M302 121H282C270.954 121 262 112.046 262 101V81H282C293.046 81 302 89.9543 302 101V121Z" fill="#C4CBEA"/>
<path d="M108 120.5H88.5V101C88.5 90.2305 97.2305 81.5 108 81.5H127.5V101C127.5 111.77 118.77 120.5 108 120.5ZM127.5 61V80.5H108C97.2305 80.5 88.5 71.7695 88.5 61V41.5H108C118.77 41.5 127.5 50.2304 127.5 61ZM128.5 101V81.5H148C158.77 81.5 167.5 90.2305 167.5 101V120.5H148C137.23 120.5 128.5 111.77 128.5 101ZM261.5 81.5V101C261.5 111.77 252.77 120.5 242 120.5H222.5V101C222.5 90.2305 231.23 81.5 242 81.5H261.5ZM262.5 101V81.5H282C292.77 81.5 301.5 90.2305 301.5 101V120.5H282C271.23 120.5 262.5 111.77 262.5 101ZM301.5 41.5V61C301.5 71.7695 292.77 80.5 282 80.5H262.5V61C262.5 50.2304 271.23 41.5 282 41.5H301.5ZM0.5 40.5031C21.9184 40.7688 39.2312 58.0816 39.4969 79.5H0.5V40.5031ZM40.5 80.5031C61.9184 80.7688 79.2312 98.0816 79.4969 119.5H40.5V80.5031ZM39.5 80.5V119.497C18.0816 119.231 0.768793 101.918 0.5031 80.5H39.5ZM0.5031 0.5H39.5V39.4969C18.0816 39.2312 0.768793 21.9184 0.5031 0.5ZM40.5 0.5031C61.9184 0.768793 79.2312 18.0816 79.4969 39.5H40.5V0.5031ZM40.5031 40.5H79.5V79.4969C58.0816 79.2312 40.7688 61.9184 40.5031 40.5ZM350.503 79.5C350.769 58.0816 368.082 40.7688 389.5 40.5031V79.5H350.503ZM310.503 119.5C310.769 98.0816 328.082 80.7688 349.5 80.5031V119.5H310.503ZM389.497 80.5C389.231 101.918 371.918 119.231 350.5 119.497V80.5H389.497ZM310.5 79.4969V40.5H349.497C349.231 61.9184 331.918 79.2312 310.5 79.4969ZM310.503 39.5C310.769 18.0816 328.082 0.768793 349.5 0.5031V39.5H310.503ZM389.497 0.5C389.231 21.9184 371.918 39.2312 350.5 39.4969V0.5H389.497Z" stroke="black" stroke-opacity="0.05"/>
</g>
<g clip-path="url(#clip0_51_1072)">
<g filter="url(#filter0_d_51_1072)">
<path d="M74 79H75.1368C78.6246 79 81.452 81.8158 81.452 85.2893V99H80.3153C76.8274 99 74 96.1842 74 92.7107V79Z" fill="white"/>
<path d="M81.5783 81.0126H82.7151C86.2029 81.0126 89.0304 83.8284 89.0304 87.3019V97.1132H87.8936C84.4058 97.1132 81.5783 94.2974 81.5783 90.8239V81.0126Z" fill="#FBFBFB"/>
<path d="M89.1567 79H90.2934C93.7812 79 96.6087 81.8158 96.6087 85.2893V99H95.4719C91.9841 99 89.1567 96.1842 89.1567 92.7107V79Z" fill="white"/>
</g>
<g filter="url(#filter1_d_51_1072)">
<path d="M111.109 83.4L114.909 92.7L118.689 83.4H121.309V97H119.009V91.8L119.309 87.04L115.929 95.4H113.789L110.489 87.02L110.789 91.8V97H108.489V83.4H111.109ZM127.471 97H125.071V83.4H127.471V97ZM131.223 97V83.4H133.423C134.476 84.7733 135.476 86.2267 136.423 87.76C137.37 89.28 138.23 90.8467 139.003 92.46L138.823 88.4V83.4H141.123V97H138.923C138.07 95.32 137.183 93.6333 136.263 91.94C135.356 90.2333 134.39 88.6267 133.363 87.12L133.523 91.8V97H131.223ZM147.275 97H144.875V83.4H147.275V97ZM151.028 97V83.4H155.508C156.934 83.4 158.001 83.76 158.708 84.48C159.428 85.2 159.788 86.16 159.788 87.36V88.42C159.788 89.62 159.428 90.5867 158.708 91.32C158.001 92.04 156.934 92.4 155.508 92.4H153.428V97H151.028ZM155.508 85.7H153.428V90.1H155.508C156.094 90.1 156.541 89.9533 156.848 89.66C157.168 89.3667 157.328 88.9533 157.328 88.42V87.36C157.328 86.84 157.168 86.4333 156.848 86.14C156.541 85.8467 156.094 85.7 155.508 85.7ZM172.132 88.76V91.62C172.132 93.3533 171.699 94.72 170.832 95.72C169.965 96.7067 168.699 97.2 167.032 97.2C165.352 97.2 164.079 96.7067 163.212 95.72C162.359 94.72 161.932 93.3533 161.932 91.62V88.76C161.932 87.0267 162.359 85.6667 163.212 84.68C164.079 83.6933 165.352 83.2 167.032 83.2C168.699 83.2 169.965 83.6933 170.832 84.68C171.699 85.6667 172.132 87.0267 172.132 88.76ZM169.672 88.76C169.672 87.6667 169.459 86.8467 169.032 86.3C168.605 85.74 167.939 85.46 167.032 85.46C166.125 85.46 165.459 85.74 165.032 86.3C164.605 86.8467 164.392 87.6667 164.392 88.76V91.62C164.392 92.7133 164.605 93.54 165.032 94.1C165.459 94.66 166.125 94.94 167.032 94.94C167.939 94.94 168.605 94.66 169.032 94.1C169.459 93.54 169.672 92.7133 169.672 91.62V88.76ZM178.265 94.98C179.812 94.98 180.585 94.4067 180.585 93.26C180.585 92.7933 180.465 92.4267 180.225 92.16C179.998 91.8933 179.572 91.66 178.945 91.46L177.305 90.92C175.345 90.28 174.365 88.9933 174.365 87.06C174.365 85.94 174.712 85.02 175.405 84.3C176.112 83.5667 177.212 83.2 178.705 83.2C179.332 83.2 179.952 83.2733 180.565 83.42C181.178 83.5533 181.832 83.7733 182.525 84.08L181.785 86.14C181.145 85.8867 180.598 85.7067 180.145 85.6C179.705 85.48 179.252 85.42 178.785 85.42C178.172 85.42 177.685 85.5333 177.325 85.76C176.978 85.9733 176.805 86.3667 176.805 86.94C176.805 87.3667 176.925 87.72 177.165 88C177.418 88.2667 177.832 88.4933 178.405 88.68L180.045 89.22C181.032 89.5533 181.772 90.04 182.265 90.68C182.772 91.3067 183.025 92.14 183.025 93.18C183.025 94.38 182.645 95.3533 181.885 96.1C181.125 96.8333 179.932 97.2 178.305 97.2C177.665 97.2 176.998 97.1267 176.305 96.98C175.625 96.82 174.878 96.5533 174.065 96.18L174.805 94.12C175.552 94.44 176.185 94.6667 176.705 94.8C177.238 94.92 177.758 94.98 178.265 94.98Z" fill="white"/>
</g>
</g>
<g filter="url(#filter2_d_51_1072)">
<path d="M190.672 93V86.2H192.672C193.325 86.2 193.805 86.36 194.112 86.68C194.425 86.9933 194.582 87.4167 194.582 87.95V88.17C194.582 88.4633 194.515 88.7233 194.382 88.95C194.248 89.1767 194.055 89.3567 193.802 89.49C194.155 89.6033 194.422 89.79 194.602 90.05C194.788 90.3033 194.882 90.61 194.882 90.97V91.19C194.882 91.7367 194.722 92.1767 194.402 92.51C194.088 92.8367 193.595 93 192.922 93H190.672ZM192.672 87H191.542V89.15H192.672C193.005 89.15 193.255 89.0667 193.422 88.9C193.595 88.7267 193.682 88.49 193.682 88.19V87.95C193.682 87.6567 193.595 87.4267 193.422 87.26C193.255 87.0867 193.005 87 192.672 87ZM192.922 89.95H191.542V92.21H192.922C193.275 92.21 193.538 92.12 193.712 91.94C193.892 91.76 193.982 91.51 193.982 91.19V90.95C193.982 90.6433 193.892 90.4 193.712 90.22C193.538 90.04 193.275 89.95 192.922 89.95ZM200.416 86.2L198.336 90.28V93H197.466V90.28L195.376 86.2H196.316L197.946 89.42L199.516 86.2H200.416ZM205.148 92.32C205.568 92.32 205.891 92.23 206.118 92.05C206.344 91.8633 206.458 91.5933 206.458 91.24C206.458 90.9467 206.378 90.7 206.218 90.5C206.064 90.3 205.811 90.1467 205.458 90.04L204.648 89.8C204.141 89.6467 203.768 89.4167 203.528 89.11C203.288 88.7967 203.168 88.4133 203.168 87.96C203.168 87.6133 203.234 87.3 203.368 87.02C203.508 86.74 203.728 86.5167 204.028 86.35C204.334 86.1833 204.734 86.1 205.228 86.1C205.528 86.1 205.838 86.1367 206.158 86.21C206.478 86.2767 206.801 86.3867 207.128 86.54L206.848 87.29C206.528 87.15 206.238 87.05 205.978 86.99C205.724 86.9233 205.481 86.89 205.248 86.89C204.868 86.89 204.571 86.97 204.358 87.13C204.151 87.2833 204.048 87.54 204.048 87.9C204.048 88.16 204.118 88.38 204.258 88.56C204.398 88.7333 204.648 88.8767 205.008 88.99L205.818 89.23C206.831 89.53 207.338 90.1767 207.338 91.17C207.338 91.7433 207.164 92.21 206.818 92.57C206.471 92.9233 205.914 93.1 205.148 93.1C204.834 93.1 204.501 93.0633 204.148 92.99C203.801 92.91 203.441 92.7867 203.068 92.62L203.338 91.88C203.691 92.04 204.008 92.1533 204.288 92.22C204.574 92.2867 204.861 92.32 205.148 92.32ZM212.656 93V89.97H209.686V93H208.816V86.2H209.686V89.15H212.656V86.2H213.526V93H212.656ZM216.512 93H215.642V86.2H216.512V93ZM221.98 90.14H219.51V93H218.64V86.2H222.28V87.02H219.51V89.32H221.98V90.14ZM227.039 90.14H224.569V93H223.699V86.2H227.339V87.02H224.569V89.32H227.039V90.14ZM228.598 86.2H229.498V90.56C229.498 91.1067 229.611 91.5333 229.838 91.84C230.071 92.1467 230.431 92.3 230.918 92.3C231.411 92.3 231.771 92.1467 231.998 91.84C232.225 91.5333 232.338 91.1067 232.338 90.56V86.2H233.238V90.56C233.238 91.3533 233.045 91.9767 232.658 92.43C232.271 92.8767 231.691 93.1 230.918 93.1C230.138 93.1 229.555 92.8767 229.168 92.43C228.788 91.9767 228.598 91.3533 228.598 90.56V86.2ZM236.242 86.2L238.312 91.24L240.392 86.2H241.382V93H240.532V90.09L240.642 87.47L238.692 92.2H237.872L235.962 87.45L236.072 90.09V93H235.222V86.2H236.242ZM247.313 92.19V93H243.513V86.2H247.213V87.02H244.383V89.15H246.913V89.97H244.383V92.19H247.313ZM248.826 93V86.2H250.936C251.716 86.2 252.316 86.4367 252.736 86.91C253.156 87.3767 253.366 88.0233 253.366 88.85V90.34C253.366 91.1733 253.156 91.8267 252.736 92.3C252.316 92.7667 251.716 93 250.936 93H248.826ZM250.916 87.02H249.696V92.19H250.916C251.949 92.19 252.466 91.5733 252.466 90.34V88.85C252.466 87.63 251.949 87.02 250.916 87.02ZM256.063 93H255.193V86.2H256.063V93ZM261.791 93L261.281 91.42H258.701L258.191 93H257.341L259.601 86.2H260.421L262.691 93H261.791ZM259.331 89.46L258.951 90.63H261.021L260.641 89.46L259.991 87.36L259.331 89.46ZM262.378 87.02V86.2H267.208V87.02H265.228V93H264.358V87.02H262.378ZM272.196 92.19V93H268.396V86.2H272.096V87.02H269.266V89.15H271.796V89.97H269.266V92.19H272.196ZM277.419 93L275.479 89.79C275.339 89.9367 275.192 90.0867 275.039 90.24C274.892 90.3933 274.739 90.5467 274.579 90.7V93H273.709V86.2H274.579V89.73C275.205 89.0967 275.729 88.4967 276.149 87.93C276.569 87.3633 276.925 86.7867 277.219 86.2H278.159C277.859 86.7867 277.545 87.32 277.219 87.8C276.899 88.2733 276.532 88.7467 276.119 89.22L278.479 93H277.419Z" fill="white"/>
</g>
<path d="M224.569 32.2842L217.497 39.3552C213.592 43.2605 207.261 43.2605 203.355 39.3552L196.284 32.2842L203.355 25.2131C207.261 21.3079 213.592 21.3079 217.497 25.2131L224.569 32.2842Z" fill="#6374C8"/>
<path d="M168 32.2842L175.071 25.2131C178.976 21.3079 185.308 21.3079 189.213 25.2131L196.284 32.2842L189.213 39.3552C185.308 43.2605 178.976 43.2605 175.071 39.3552L168 32.2842Z" fill="#6374C8"/>
<path d="M196.284 3.99991L189.213 11.071C185.308 14.9762 185.308 21.3079 189.213 25.2131L196.284 32.2842L203.355 25.2131C207.261 21.3079 207.261 14.9762 203.355 11.071L196.284 3.99991Z" fill="#A1ABDE"/>
<path d="M196.284 32.2842L189.213 39.3552C185.308 43.2605 185.308 49.5921 189.213 53.4974L196.284 60.5685L203.355 53.4974C207.261 49.5921 207.261 43.2605 203.355 39.3552L196.284 32.2842Z" fill="#A1ABDE"/>
<defs>
<filter id="filter0_d_51_1072" x="70" y="79" width="30.6086" height="28" filterUnits="userSpaceOnUse" color-interpolation-filters="sRGB">
<feFlood flood-opacity="0" result="BackgroundImageFix"/>
<feColorMatrix in="SourceAlpha" type="matrix" values="0 0 0 0 0 0 0 0 0 0 0 0 0 0 0 0 0 0 127 0" result="hardAlpha"/>
<feOffset dy="4"/>
<feGaussianBlur stdDeviation="2"/>
<feComposite in2="hardAlpha" operator="out"/>
<feColorMatrix type="matrix" values="0 0 0 0 0 0 0 0 0 0 0 0 0 0 0 0 0 0 0.25 0"/>
<feBlend mode="normal" in2="BackgroundImageFix" result="effect1_dropShadow_51_1072"/>
<feBlend mode="normal" in="SourceGraphic" in2="effect1_dropShadow_51_1072" result="shape"/>
</filter>
<filter id="filter1_d_51_1072" x="104.489" y="83.2002" width="82.5366" height="22" filterUnits="userSpaceOnUse" color-interpolation-filters="sRGB">
<feFlood flood-opacity="0" result="BackgroundImageFix"/>
<feColorMatrix in="SourceAlpha" type="matrix" values="0 0 0 0 0 0 0 0 0 0 0 0 0 0 0 0 0 0 127 0" result="hardAlpha"/>
<feOffset dy="4"/>
<feGaussianBlur stdDeviation="2"/>
<feComposite in2="hardAlpha" operator="out"/>
<feColorMatrix type="matrix" values="0 0 0 0 0 0 0 0 0 0 0 0 0 0 0 0 0 0 0.25 0"/>
<feBlend mode="normal" in2="BackgroundImageFix" result="effect1_dropShadow_51_1072"/>
<feBlend mode="normal" in="SourceGraphic" in2="effect1_dropShadow_51_1072" result="shape"/>
</filter>
<filter id="filter2_d_51_1072" x="186.672" y="86.0996" width="95.8071" height="15" filterUnits="userSpaceOnUse" color-interpolation-filters="sRGB">
<feFlood flood-opacity="0" result="BackgroundImageFix"/>
<feColorMatrix in="SourceAlpha" type="matrix" values="0 0 0 0 0 0 0 0 0 0 0 0 0 0 0 0 0 0 127 0" result="hardAlpha"/>
<feOffset dy="4"/>
<feGaussianBlur stdDeviation="2"/>
<feComposite in2="hardAlpha" operator="out"/>
<feColorMatrix type="matrix" values="0 0 0 0 0 0 0 0 0 0 0 0 0 0 0 0 0 0 0.25 0"/>
<feBlend mode="normal" in2="BackgroundImageFix" result="effect1_dropShadow_51_1072"/>
<feBlend mode="normal" in="SourceGraphic" in2="effect1_dropShadow_51_1072" result="shape"/>
</filter>
<clipPath id="clip0_51_1072">
<rect width="110.609" height="20" fill="white" transform="translate(74 79)"/>
</clipPath>
</defs>
</svg>
