<svg width="390" height="121" viewBox="0 0 390 121" fill="none" xmlns="http://www.w3.org/2000/svg">
<g opacity="0.7">
<path d="M0 40C22.0914 40 40 57.9086 40 80H0V40Z" fill="#C4CBEA"/>
<path d="M0.5 40.5031C21.9184 40.7688 39.2312 58.0816 39.4969 79.5H0.5V40.5031Z" stroke="black" stroke-opacity="0.05"/>
<path d="M40 120C17.9086 120 0 102.091 0 80H40V120Z" fill="#4F62C1"/>
<path d="M39.5 119.497C18.0816 119.231 0.768795 101.918 0.503101 80.5H39.5V119.497Z" stroke="black" stroke-opacity="0.05"/>
<path d="M40 80C62.0914 80 80 97.9086 80 120H40V80Z" fill="#6C7CCB"/>
<path d="M40.5 80.5031C61.9184 80.7688 79.2312 98.0816 79.4969 119.5H40.5V80.5031Z" stroke="black" stroke-opacity="0.05"/>
<path d="M40 0C62.0914 0 80 17.9086 80 40H40V0Z" fill="#C4CBEA"/>
<path d="M40.5 0.5031C61.9184 0.768793 79.2312 18.0816 79.4969 39.5H40.5V0.5031Z" stroke="black" stroke-opacity="0.05"/>
<path d="M40 40C17.9086 40 0 22.0914 0 0H40V40Z" fill="#4F62C1"/>
<path d="M39.5 39.4969C18.0816 39.2312 0.768795 21.9184 0.503101 0.5H39.5V39.4969Z" stroke="black" stroke-opacity="0.05"/>
<path d="M80 80C57.9086 80 40 62.0914 40 40H80V80Z" fill="#6C7CCB"/>
<path d="M79.5 79.4969C58.0816 79.2312 40.7688 61.9184 40.5031 40.5H79.5V79.4969Z" stroke="black" stroke-opacity="0.05"/>
<path d="M88 41H108C119.046 41 128 49.9543 128 61V81H108C96.9543 81 88 72.0457 88 61V41Z" fill="#6C7CCB"/>
<path d="M168 121H148C136.954 121 128 112.046 128 101V81H148C159.046 81 168 89.9543 168 101V121Z" fill="#4F62C1"/>
<path d="M88 121H108C119.046 121 128 112.046 128 101V81H108C96.9543 81 88 89.9543 88 101V121Z" fill="#C4CBEA"/>
<path d="M88.5 61V41.5H108C118.77 41.5 127.5 50.2305 127.5 61V80.5H108C97.2305 80.5 88.5 71.7696 88.5 61ZM108 81.5H127.5V101C127.5 111.77 118.77 120.5 108 120.5H88.5V101C88.5 90.2304 97.2305 81.5 108 81.5ZM167.5 101V120.5H148C137.23 120.5 128.5 111.77 128.5 101V81.5H148C158.77 81.5 167.5 90.2304 167.5 101Z" stroke="black" stroke-opacity="0.05"/>
</g>
<g opacity="0.7">
<path d="M390 40C367.909 40 350 57.9086 350 80H390V40Z" fill="#C4CBEA"/>
<path d="M389.5 40.5031C368.082 40.7688 350.769 58.0816 350.503 79.5H389.5V40.5031Z" stroke="black" stroke-opacity="0.05"/>
<path d="M350 120C372.091 120 390 102.091 390 80H350V120Z" fill="#4F62C1"/>
<path d="M350.5 119.497C371.918 119.231 389.231 101.918 389.497 80.5H350.5V119.497Z" stroke="black" stroke-opacity="0.05"/>
<path d="M350 80C327.909 80 310 97.9086 310 120H350V80Z" fill="#6C7CCB"/>
<path d="M349.5 80.5031C328.082 80.7688 310.769 98.0816 310.503 119.5H349.5V80.5031Z" stroke="black" stroke-opacity="0.05"/>
<path d="M350 0C327.909 0 310 17.9086 310 40H350V0Z" fill="#C4CBEA"/>
<path d="M349.5 0.5031C328.082 0.768793 310.769 18.0816 310.503 39.5H349.5V0.5031Z" stroke="black" stroke-opacity="0.05"/>
<path d="M350 40C372.091 40 390 22.0914 390 0H350V40Z" fill="#4F62C1"/>
<path d="M350.5 39.4969C371.918 39.2312 389.231 21.9184 389.497 0.5H350.5V39.4969Z" stroke="black" stroke-opacity="0.05"/>
<path d="M310 80C332.091 80 350 62.0914 350 40H310V80Z" fill="#6C7CCB"/>
<path d="M310.5 79.4969C331.918 79.2312 349.231 61.9184 349.497 40.5H310.5V79.4969Z" stroke="black" stroke-opacity="0.05"/>
<path d="M302 41H282C270.954 41 262 49.9543 262 61V81H282C293.046 81 302 72.0457 302 61V41Z" fill="#6C7CCB"/>
<path d="M222 121H242C253.046 121 262 112.046 262 101V81H242C230.954 81 222 89.9543 222 101V121Z" fill="#4F62C1"/>
<path d="M302 121H282C270.954 121 262 112.046 262 101V81H282C293.046 81 302 89.9543 302 101V121Z" fill="#C4CBEA"/>
<path d="M301.5 61V41.5H282C271.23 41.5 262.5 50.2305 262.5 61V80.5H282C292.77 80.5 301.5 71.7696 301.5 61ZM282 81.5H262.5V101C262.5 111.77 271.23 120.5 282 120.5H301.5V101C301.5 90.2304 292.77 81.5 282 81.5ZM222.5 101V120.5H242C252.77 120.5 261.5 111.77 261.5 101V81.5H242C231.23 81.5 222.5 90.2304 222.5 101Z" stroke="black" stroke-opacity="0.05"/>
</g>
</svg>
