<svg width="108" height="108" viewBox="0 0 108 108" fill="none" xmlns="http://www.w3.org/2000/svg">
<g filter="url(#filter0_d_7_1799)">
<path d="M4 0H29C42.8071 0 54 11.1929 54 25V50H29C15.1929 50 4 38.8071 4 25V0Z" fill="#6C7CCB"/>
<path d="M104 100H79C65.1929 100 54 88.8071 54 75V50H79C92.8071 50 104 61.1929 104 75V100Z" fill="#4F62C1"/>
<path d="M4 100H29C42.8071 100 54 88.8071 54 75V50H29C15.1929 50 4 61.1929 4 75V100Z" fill="#C4CBEA"/>
</g>
<defs>
<filter id="filter0_d_7_1799" x="0" y="0" width="108" height="108" filterUnits="userSpaceOnUse" color-interpolation-filters="sRGB">
<feFlood flood-opacity="0" result="BackgroundImageFix"/>
<feColorMatrix in="SourceAlpha" type="matrix" values="0 0 0 0 0 0 0 0 0 0 0 0 0 0 0 0 0 0 127 0" result="hardAlpha"/>
<feOffset dy="4"/>
<feGaussianBlur stdDeviation="2"/>
<feComposite in2="hardAlpha" operator="out"/>
<feColorMatrix type="matrix" values="0 0 0 0 0 0 0 0 0 0 0 0 0 0 0 0 0 0 0.25 0"/>
<feBlend mode="normal" in2="BackgroundImageFix" result="effect1_dropShadow_7_1799"/>
<feBlend mode="normal" in="SourceGraphic" in2="effect1_dropShadow_7_1799" result="shape"/>
</filter>
</defs>
</svg>
