<svg width="343" height="121" viewBox="0 0 343 121" fill="none" xmlns="http://www.w3.org/2000/svg">
<path d="M0 40C22.0914 40 40 57.9086 40 80H0V40Z" fill="#C4CBEA"/>
<path d="M40 120C17.9086 120 0 102.091 0 80H40V120Z" fill="#4F62C1"/>
<path d="M40 80C62.0914 80 80 97.9086 80 120H40V80Z" fill="#6C7CCB"/>
<path d="M40 0C62.0914 0 80 17.9086 80 40H40V0Z" fill="#C4CBEA"/>
<path d="M40 40C17.9086 40 0 22.0914 0 0H40V40Z" fill="#4F62C1"/>
<path d="M80 80C57.9086 80 40 62.0914 40 40H80V80Z" fill="#6C7CCB"/>
<path d="M303 0C280.909 0 263 17.9086 263 40H303V0Z" fill="#C4CBEA"/>
<path d="M303 41C325.091 41 343 23.0914 343 1H303V41Z" fill="#4F62C1"/>
<path d="M263 80C285.091 80 303 62.0914 303 40H263V80Z" fill="#6C7CCB"/>
<path d="M343 40C320.909 40 303 57.9086 303 80H343V40Z" fill="#C4CBEA"/>
<path d="M303 80C280.909 80 263 97.9086 263 120H303V80Z" fill="#4F62C1"/>
<path d="M303 120C325.091 120 343 102.091 343 80H303V120Z" fill="#6C7CCB"/>
<path d="M88 41H108C119.046 41 128 49.9543 128 61V81H108C96.9543 81 88 72.0457 88 61V41Z" fill="#6C7CCB"/>
<path d="M168 121H148C136.954 121 128 112.046 128 101V81H148C159.046 81 168 89.9543 168 101V121Z" fill="#4F62C1"/>
<path d="M88 121H108C119.046 121 128 112.046 128 101V81H108C96.9543 81 88 89.9543 88 101V121Z" fill="#C4CBEA"/>
<path d="M255 41H235C223.954 41 215 49.9543 215 61V81H235C246.046 81 255 72.0457 255 61V41Z" fill="#6C7CCB"/>
<path d="M175 121H195C206.046 121 215 112.046 215 101V81H195C183.954 81 175 89.9543 175 101V121Z" fill="#4F62C1"/>
<path d="M255 121H235C223.954 121 215 112.046 215 101V81H235C246.046 81 255 89.9543 255 101V121Z" fill="#C4CBEA"/>
</svg>
