<svg width="320" height="80" viewBox="0 0 320 80" fill="none" xmlns="http://www.w3.org/2000/svg">
<path d="M0 80H20C31.0457 80 40 71.0457 40 60V40H20C8.95431 40 0 48.9543 0 60V80Z" fill="#6C7CCB"/>
<path d="M80 0H60C48.9543 0 40 8.9543 40 20V40H60C71.0457 40 80 31.0457 80 20V0Z" fill="#4F62C1"/>
<path d="M0 0H20C31.0457 0 40 8.9543 40 20V40H20C8.95431 40 0 31.0457 0 20V0Z" fill="#C4CBEA"/>
<path d="M160 80H140C128.954 80 120 71.0457 120 60V40H140C151.046 40 160 48.9543 160 60V80Z" fill="#6C7CCB"/>
<path d="M80 0H100C111.046 0 120 8.95431 120 20V40H100C88.9543 40 80 31.0457 80 20V0Z" fill="#4F62C1"/>
<path d="M160 0H140C128.954 0 120 8.95431 120 20V40H140C151.046 40 160 31.0457 160 20V0Z" fill="#C4CBEA"/>
<path d="M160 80H180C191.046 80 200 71.0457 200 60V40H180C168.954 40 160 48.9543 160 60V80Z" fill="#6C7CCB"/>
<path d="M240 0H220C208.954 0 200 8.95431 200 20V40H220C231.046 40 240 31.0457 240 20V0Z" fill="#4F62C1"/>
<path d="M160 0H180C191.046 0 200 8.95431 200 20V40H180C168.954 40 160 31.0457 160 20V0Z" fill="#C4CBEA"/>
<path d="M320 80H300C288.954 80 280 71.0457 280 60V40H300C311.046 40 320 48.9543 320 60V80Z" fill="#6C7CCB"/>
<path d="M240 0H260C271.046 0 280 8.95431 280 20V40H260C248.954 40 240 31.0457 240 20V0Z" fill="#4F62C1"/>
<path d="M320 0H300C288.954 0 280 8.95431 280 20V40H300C311.046 40 320 31.0457 320 20V0Z" fill="#C4CBEA"/>
</svg>
