<svg width="24" height="22" viewBox="0 0 24 22" fill="none" xmlns="http://www.w3.org/2000/svg">
<path d="M23.9166 8.25C23.9163 8.09204 23.8756 7.93677 23.7983 7.799L19.6587 0.465667C19.5788 0.324279 19.4627 0.206657 19.3224 0.124836C19.1822 0.0430159 19.0227 -6.56586e-05 18.8603 7.51095e-08H5.13959C4.97718 -6.56586e-05 4.81768 0.0430159 4.67739 0.124836C4.5371 0.206657 4.42107 0.324279 4.34117 0.465667L0.201502 7.799C0.124219 7.93677 0.0835092 8.09204 0.083252 8.25C0.0852768 8.89075 0.255723 9.51971 0.577499 10.0738C0.899276 10.6279 1.36107 11.0877 1.91659 11.407V20.1667C1.91659 20.6529 2.10974 21.1192 2.45356 21.463C2.79737 21.8068 3.26369 22 3.74992 22H9.13992C9.62615 22 10.0925 21.8068 10.4363 21.463C10.7801 21.1192 10.9733 20.6529 10.9733 20.1667V17.6852C10.9648 17.4178 11.0527 17.1561 11.2209 16.948C11.3892 16.7399 11.6266 16.5991 11.8899 16.5513C12.0332 16.5362 12.178 16.5513 12.315 16.5957C12.4521 16.6401 12.5783 16.7128 12.6854 16.809C12.7926 16.9053 12.8783 17.023 12.9371 17.1545C12.9959 17.2861 13.0264 17.4284 13.0266 17.5725V20.1667C13.0266 20.6529 13.2197 21.1192 13.5636 21.463C13.9074 21.8068 14.3737 22 14.8599 22H20.2499C20.7361 22 21.2025 21.8068 21.5463 21.463C21.8901 21.1192 22.0833 20.6529 22.0833 20.1667V11.407C22.6388 11.0877 23.1006 10.6279 23.4223 10.0738C23.7441 9.51971 23.9146 8.89075 23.9166 8.25ZM22.0704 8.46817C22.0152 8.93249 21.7846 9.35816 21.4259 9.6581C21.0672 9.95804 20.6074 10.1096 20.1406 10.0817C19.6739 10.0538 19.2354 9.84867 18.9149 9.50817C18.5944 9.16768 18.4162 8.7176 18.4166 8.25C18.4113 8.20724 18.4027 8.16494 18.3909 8.1235C18.3911 8.08238 18.388 8.04131 18.3818 8.00067L16.6392 1.83333H18.3249L22.0704 8.46817ZM9.2655 1.83333H11.0833V8.25C11.0641 8.71486 10.869 9.15507 10.5374 9.48141C10.2058 9.80774 9.76251 9.9958 9.2974 10.0075C8.83229 10.0191 8.38015 9.8535 8.03261 9.54418C7.68507 9.23487 7.46813 8.80499 7.42575 8.34167L9.2655 1.83333ZM12.9166 1.83333H14.7343L16.5741 8.34167C16.5317 8.80499 16.3148 9.23487 15.9672 9.54418C15.6197 9.8535 15.1675 10.0191 14.7024 10.0075C14.2373 9.9958 13.7941 9.80774 13.4624 9.48141C13.1308 9.15507 12.9357 8.71486 12.9166 8.25V1.83333ZM5.67492 1.83333H7.36067L5.619 8.00067C5.61276 8.04131 5.6097 8.08238 5.60984 8.1235C5.59772 8.16492 5.58884 8.20721 5.58325 8.25C5.58367 8.7176 5.4054 9.16768 5.08492 9.50817C4.76443 9.84867 4.32596 10.0538 3.85919 10.0817C3.39243 10.1096 2.93265 9.95804 2.57393 9.6581C2.21521 9.35816 1.98465 8.93249 1.92942 8.46817L5.67492 1.83333ZM20.2499 20.1667H14.8599V17.5725C14.8595 17.1725 14.7751 16.7769 14.6122 16.4115C14.4494 16.0461 14.2117 15.719 13.9145 15.4512C13.6173 15.1833 13.2673 14.9809 12.887 14.8568C12.5066 14.7327 12.1045 14.6898 11.7066 14.7308C10.9908 14.8242 10.3341 15.1769 9.86106 15.7221C9.38798 16.2673 9.13139 16.9671 9.13992 17.6889V20.1667H3.74992V11.9167C4.27042 11.9169 4.78498 11.8061 5.25921 11.5916C5.73345 11.3771 6.15644 11.0638 6.49992 10.6727C6.84326 11.0653 7.26696 11.3796 7.74232 11.5942C8.21768 11.8087 8.7336 11.9187 9.25515 11.9165C9.77669 11.9143 10.2917 11.8001 10.7652 11.5816C11.2388 11.363 11.6599 11.0453 11.9999 10.6498C12.34 11.0453 12.761 11.363 13.2346 11.5816C13.7082 11.8001 14.2231 11.9143 14.7447 11.9165C15.2662 11.9187 15.7822 11.8087 16.2575 11.5942C16.7329 11.3796 17.1566 11.0653 17.4999 10.6727C17.8434 11.0638 18.2664 11.3771 18.7406 11.5916C19.2149 11.8061 19.7294 11.9169 20.2499 11.9167V20.1667Z" fill="#6C7CCB"/>
</svg>
