<svg width="114" height="78" viewBox="0 0 114 78" fill="none" xmlns="http://www.w3.org/2000/svg">
<path d="M7.34329e-05 20.2393L14.2241 6.17952C22.0797 -1.5855 34.7428 -1.512 42.5078 6.34369L56.5677 20.5677L42.3437 34.6275C34.488 42.3925 21.8249 42.319 14.0599 34.4633L7.34329e-05 20.2393Z" fill="#6C7CCB"/>
<path d="M113.135 20.896L98.9113 34.9558C91.0556 42.7208 78.3925 42.6473 70.6275 34.7916L56.5677 20.5677L70.7916 6.50785C78.6473 -1.25717 91.3104 -1.18367 99.0754 6.67202L113.135 20.896Z" fill="#4F62C1"/>
<path d="M56.2393 77.1353L70.4633 63.0754C78.319 55.3104 78.3925 42.6473 70.6275 34.7916L56.5677 20.5677L42.3437 34.6275C34.488 42.3925 34.4145 55.0556 42.1795 62.9113L56.2393 77.1353Z" fill="#C4CBEA"/>
</svg>
