<svg width="50" height="50" viewBox="0 0 50 50" fill="none" xmlns="http://www.w3.org/2000/svg">
<path d="M18.0172 1.5625C14.1188 1.5625 10.9375 4.71094 10.9375 8.59375V12.5H3.90625C2.62187 12.5 1.5625 13.5594 1.5625 14.8438V46.0938C1.5625 47.3781 2.62187 48.4375 3.90625 48.4375H47.6562C47.689 48.4396 47.7219 48.4396 47.7547 48.4375C47.7703 48.438 47.7859 48.438 47.8016 48.4375C47.9827 48.4032 48.1459 48.306 48.2623 48.1631C48.3786 48.0201 48.4407 47.8406 48.4375 47.6562V27.3438C48.4375 27.1365 48.3552 26.9378 48.2087 26.7913C48.0622 26.6448 47.8634 26.5625 47.6562 26.5625H35.9375V14.8438C35.9375 13.5594 34.8781 12.5 33.5938 12.5H28.1734V10.1562C28.176 8.54446 27.6244 6.98077 26.6111 5.72735C25.5978 4.47393 24.1844 3.60699 22.6078 3.27188C21.3316 2.16989 19.7018 1.56323 18.0156 1.5625H18.0172ZM18.0172 3.125C18.5266 3.125 19.0172 3.19531 19.4828 3.32031C16.3844 4.06406 14.0625 6.84375 14.0625 10.1562V12.5H12.5V8.59375C12.5 5.55469 14.9531 3.125 18.0172 3.125ZM21.1422 4.6875C21.4078 4.6875 21.6688 4.70156 21.9234 4.73594C22.9156 5.72344 23.4859 7.07344 23.4859 8.59375V12.5H15.625V10.1562C15.625 7.11719 18.0781 4.6875 21.1422 4.6875ZM24.5109 5.85938C25.1689 6.36492 25.7008 7.01591 26.0652 7.76138C26.4295 8.50684 26.6163 9.32654 26.6109 10.1562V12.5H25.0484V8.59375C25.0561 7.65547 24.8723 6.72533 24.5109 5.85938ZM3.90625 14.0625H6.39687C6.30503 14.313 6.25539 14.577 6.25 14.8438C6.24687 15.1922 6.01562 15.5844 5.51719 15.8203C5.01719 16.0578 4.35781 16.0578 3.85781 15.8203C3.35938 15.5813 3.12812 15.1922 3.125 14.8438C3.125 14.7328 3.13594 14.6453 3.17344 14.55C3.20781 14.4672 3.31094 14.3719 3.36875 14.3063C3.43906 14.2375 3.51875 14.15 3.6125 14.1109C3.70605 14.0748 3.80605 14.0583 3.90625 14.0625ZM8.59375 14.0625H14.0625V16.5531C13.1484 16.8734 12.5 17.7328 12.5 18.75C12.5 20.0344 13.5578 21.0938 14.8438 21.0938C16.1297 21.0938 17.1875 20.0344 17.1875 18.75C17.1875 17.7328 16.5391 16.8734 15.625 16.5531V14.0625H26.6109V16.5531C26.1445 16.7016 25.7371 16.9944 25.4476 17.3892C25.1581 17.784 25.0014 18.2604 25 18.75C25 20.0344 26.0578 21.0938 27.3438 21.0938C28.6297 21.0938 29.6875 20.0344 29.6875 18.75C29.6875 17.75 29.0656 16.8859 28.1734 16.5531V14.0625H33.5938C34.0406 14.0625 34.375 14.3969 34.375 14.8438V26.5625H14.8438C14.6365 26.5625 14.4378 26.6448 14.2913 26.7913C14.1448 26.9378 14.0625 27.1365 14.0625 27.3438V46.875H8.59375C8.49355 46.8792 8.39355 46.8627 8.3 46.8266C8.15526 46.7665 8.03165 46.6647 7.94485 46.5343C7.85805 46.4038 7.81198 46.2505 7.8125 46.0938V14.8438C7.8125 14.7328 7.82344 14.6453 7.86094 14.55C7.92102 14.4053 8.02276 14.2816 8.15323 14.1948C8.28371 14.1081 8.43704 14.062 8.59375 14.0625ZM3.125 17.1875C3.14531 17.1984 3.15312 17.2266 3.17344 17.2359C4.12344 17.6875 5.25156 17.6875 6.20156 17.2359C6.22188 17.2266 6.22969 17.1984 6.25 17.1875V46.0938C6.25 46.3609 6.3125 46.6344 6.39687 46.875H3.90625C3.80295 46.8776 3.70021 46.8591 3.60426 46.8208C3.50831 46.7824 3.42116 46.725 3.34809 46.6519C3.27503 46.5788 3.21758 46.4917 3.17923 46.3957C3.14088 46.2998 3.12243 46.197 3.125 46.0938V17.1875ZM14.8438 17.9688C15.2844 17.9688 15.625 18.3094 15.625 18.75C15.625 19.1906 15.2844 19.5312 14.8438 19.5312C14.7407 19.5327 14.6385 19.5135 14.543 19.4748C14.4476 19.436 14.3609 19.3785 14.288 19.3057C14.2152 19.2329 14.1577 19.1462 14.119 19.0507C14.0802 18.9553 14.061 18.853 14.0625 18.75C14.0625 18.3094 14.4031 17.9688 14.8438 17.9688ZM27.3438 17.9688C27.7844 17.9688 28.125 18.3094 28.125 18.75C28.125 19.1906 27.7844 19.5312 27.3438 19.5312C27.2407 19.5327 27.1385 19.5135 27.043 19.4748C26.9476 19.436 26.8609 19.3785 26.788 19.3057C26.7152 19.2329 26.6577 19.1462 26.619 19.0507C26.5802 18.9553 26.561 18.853 26.5625 18.75C26.5625 18.3094 26.9031 17.9688 27.3438 17.9688ZM15.625 28.125H46.875V46.875H15.625V28.125ZM25.7812 29.6875C24.4953 29.6875 23.4375 30.7453 23.4375 32.0312C23.4375 33.0312 24.0594 33.8953 24.9516 34.2281V36.7188C24.9516 40.6016 28.0844 43.75 31.9828 43.75C35.8812 43.75 39.0625 40.6016 39.0625 36.7188V34.2281C39.9766 33.9078 40.625 33.0484 40.625 32.0312C40.625 30.7453 39.5672 29.6875 38.2812 29.6875C36.9953 29.6875 35.9375 30.7453 35.9375 32.0312C35.9375 33.0484 36.5859 33.9078 37.5 34.2281V36.7188C37.5 39.7578 35.0469 42.1875 31.9828 42.1875C31.2631 42.1929 30.5496 42.0551 29.8836 41.7822C29.2177 41.5093 28.6127 41.1067 28.1038 40.5978C27.5949 40.0889 27.1922 39.4839 26.9193 38.8179C26.6464 38.152 26.5087 37.4384 26.5141 36.7188V34.2281C26.9805 34.0796 27.3879 33.7869 27.6774 33.3921C27.9669 32.9973 28.1236 32.5208 28.125 32.0312C28.125 30.7453 27.0672 29.6875 25.7812 29.6875ZM25.7812 31.25C26.2219 31.25 26.5625 31.5906 26.5625 32.0312C26.5625 32.4719 26.2219 32.8125 25.7812 32.8125C25.6782 32.814 25.576 32.7948 25.4805 32.756C25.3851 32.7173 25.2984 32.6598 25.2255 32.587C25.1527 32.5141 25.0952 32.4274 25.0565 32.332C25.0177 32.2365 24.9985 32.1343 25 32.0312C25 31.5906 25.3406 31.25 25.7812 31.25ZM38.2812 31.25C38.7219 31.25 39.0625 31.5906 39.0625 32.0312C39.0625 32.4719 38.7219 32.8125 38.2812 32.8125C38.1782 32.814 38.076 32.7948 37.9805 32.756C37.8851 32.7173 37.7984 32.6598 37.7255 32.587C37.6527 32.5141 37.5952 32.4274 37.5565 32.332C37.5177 32.2365 37.4985 32.1343 37.5 32.0312C37.5 31.5906 37.8406 31.25 38.2812 31.25Z" fill="#4F62C1"/>
</svg>
