<svg width="50" height="50" viewBox="0 0 50 50" fill="none" xmlns="http://www.w3.org/2000/svg">
<path d="M14.0625 3.12455C11.4797 3.12455 9.375 5.22924 9.375 7.81205V32.8121H3.90625C3.69905 32.8121 3.50034 32.8944 3.35382 33.0409C3.20731 33.1874 3.125 33.3861 3.125 33.5933V35.9371C3.125 39.3855 5.92656 42.1871 9.375 42.1871H25V46.0933C25 46.3005 25.0823 46.4992 25.2288 46.6457C25.3753 46.7922 25.574 46.8746 25.7812 46.8746H47.6562C47.8634 46.8746 48.0622 46.7922 48.2087 46.6457C48.3552 46.4992 48.4375 46.3005 48.4375 46.0933V17.9683C48.4375 17.7611 48.3552 17.5624 48.2087 17.4159C48.0622 17.2694 47.8634 17.1871 47.6562 17.1871H39.0625V7.86049C39.0625 5.25737 36.9641 3.12455 34.375 3.12455C34.2906 3.12455 34.2141 3.11987 34.1313 3.12455C34.0824 3.11994 34.0332 3.11994 33.9844 3.12455H14.0625ZM14.0625 4.68705H30.9078C30.1184 5.55495 29.6829 6.68726 29.6875 7.86049V17.1871H25.7812C25.574 17.1871 25.3753 17.2694 25.2288 17.4159C25.0823 17.5624 25 17.7611 25 17.9683V32.7636L10.9375 32.8121V7.81205C10.9375 6.06674 12.3172 4.68705 14.0625 4.68705ZM34.0828 4.68705C34.1797 4.67768 34.275 4.68705 34.375 4.68705C36.1141 4.68705 37.5 6.08705 37.5 7.86049V17.1871H31.25V7.86049C31.25 6.18862 32.4844 4.83549 34.0828 4.68705ZM12.5 7.81205V9.37455H14.0625V7.81205H12.5ZM15.625 7.81205V9.37455H28.125V7.81205H15.625ZM12.5 10.9371V12.4996H14.0625V10.9371H12.5ZM15.625 10.9371V12.4996H28.125V10.9371H15.625ZM12.5 14.0621V15.6246H14.0625V14.0621H12.5ZM15.625 14.0621V15.6246H28.125V14.0621H15.625ZM12.5 17.1871V18.7496H14.0625V17.1871H12.5ZM15.625 17.1871V18.7496H23.4375V17.1871H15.625ZM26.5625 18.7496H46.875V45.3121H26.5625V41.5527C26.5671 41.5038 26.5671 41.4547 26.5625 41.4058V33.5449C26.5671 33.496 26.5671 33.4468 26.5625 33.398V18.7496ZM27.8813 19.5308C27.7184 19.5841 27.5775 19.6894 27.4804 19.8305C27.3833 19.9717 27.3353 20.1409 27.3438 20.3121V24.9996C27.3438 25.2068 27.4261 25.4055 27.5726 25.552C27.7191 25.6985 27.9178 25.7808 28.125 25.7808H45.3125C45.5197 25.7808 45.7184 25.6985 45.8649 25.552C46.0114 25.4055 46.0938 25.2068 46.0938 24.9996V20.3121C46.0938 20.1049 46.0114 19.9061 45.8649 19.7596C45.7184 19.6131 45.5197 19.5308 45.3125 19.5308H28.125C28.0443 19.518 27.962 19.518 27.8813 19.5308ZM12.5 20.3121V21.8746H14.0625V20.3121H12.5ZM15.625 20.3121V21.8746H23.4375V20.3121H15.625ZM28.9062 21.0933H44.5312V24.2183H28.9062V21.0933ZM17.1875 23.4371V24.9996H23.4375V23.4371H17.1875ZM17.1875 26.5621V28.1246H23.4375V26.5621H17.1875ZM28.7594 26.5621C28.5785 26.5966 28.4157 26.694 28.2996 26.8369C28.1836 26.9799 28.1217 27.1592 28.125 27.3433V30.4683C28.125 30.6755 28.2073 30.8742 28.3538 31.0207C28.5003 31.1672 28.699 31.2496 28.9062 31.2496H32.0312C32.2385 31.2496 32.4372 31.1672 32.5837 31.0207C32.7302 30.8742 32.8125 30.6755 32.8125 30.4683V27.3433C32.8125 27.1361 32.7302 26.9374 32.5837 26.7909C32.4372 26.6444 32.2385 26.5621 32.0312 26.5621H28.9062C28.8574 26.5574 28.8082 26.5574 28.7594 26.5621ZM35.0094 26.5621C34.8285 26.5966 34.6657 26.694 34.5496 26.8369C34.4336 26.9799 34.3717 27.1592 34.375 27.3433V30.4683C34.375 30.6755 34.4573 30.8742 34.6038 31.0207C34.7503 31.1672 34.949 31.2496 35.1562 31.2496H38.2812C38.4884 31.2496 38.6872 31.1672 38.8337 31.0207C38.9802 30.8742 39.0625 30.6755 39.0625 30.4683V27.3433C39.0625 27.1361 38.9802 26.9374 38.8337 26.7909C38.6872 26.6444 38.4884 26.5621 38.2812 26.5621H35.1562C35.1074 26.5574 35.0582 26.5574 35.0094 26.5621ZM41.2594 26.5621C41.0785 26.5966 40.9157 26.694 40.7996 26.8369C40.6836 26.9799 40.6217 27.1592 40.625 27.3433V30.4683C40.625 30.6755 40.7073 30.8742 40.8538 31.0207C41.0003 31.1672 41.1991 31.2496 41.4062 31.2496H44.5312C44.7384 31.2496 44.9372 31.1672 45.0837 31.0207C45.2302 30.8742 45.3125 30.6755 45.3125 30.4683V27.3433C45.3125 27.1361 45.2302 26.9374 45.0837 26.7909C44.9372 26.6444 44.7384 26.5621 44.5312 26.5621H41.4062C41.3574 26.5574 41.3082 26.5574 41.2594 26.5621ZM29.6875 28.1246H31.25V29.6871H29.6875V28.1246ZM35.9375 28.1246H37.5V29.6871H35.9375V28.1246ZM42.1875 28.1246H43.75V29.6871H42.1875V28.1246ZM28.7594 32.8121C28.5785 32.8466 28.4157 32.944 28.2996 33.0869C28.1836 33.2299 28.1217 33.4092 28.125 33.5933V36.7183C28.125 36.9255 28.2073 37.1242 28.3538 37.2707C28.5003 37.4172 28.699 37.4996 28.9062 37.4996H32.0312C32.2385 37.4996 32.4372 37.4172 32.5837 37.2707C32.7302 37.1242 32.8125 36.9255 32.8125 36.7183V33.5933C32.8125 33.3861 32.7302 33.1874 32.5837 33.0409C32.4372 32.8944 32.2385 32.8121 32.0312 32.8121H28.9062C28.8574 32.8074 28.8082 32.8074 28.7594 32.8121ZM35.0094 32.8121C34.8285 32.8466 34.6657 32.944 34.5496 33.0869C34.4336 33.2299 34.3717 33.4092 34.375 33.5933V36.7183C34.375 36.9255 34.4573 37.1242 34.6038 37.2707C34.7503 37.4172 34.949 37.4996 35.1562 37.4996H38.2812C38.4884 37.4996 38.6872 37.4172 38.8337 37.2707C38.9802 37.1242 39.0625 36.9255 39.0625 36.7183V33.5933C39.0625 33.3861 38.9802 33.1874 38.8337 33.0409C38.6872 32.8944 38.4884 32.8121 38.2812 32.8121H35.1562C35.1074 32.8074 35.0582 32.8074 35.0094 32.8121ZM41.2594 32.8121C41.0785 32.8466 40.9157 32.944 40.7996 33.0869C40.6836 33.2299 40.6217 33.4092 40.625 33.5933V42.9683C40.625 43.1755 40.7073 43.3742 40.8538 43.5207C41.0003 43.6672 41.1991 43.7496 41.4062 43.7496H44.5312C44.7384 43.7496 44.9372 43.6672 45.0837 43.5207C45.2302 43.3742 45.3125 43.1755 45.3125 42.9683V33.5933C45.3125 33.3861 45.2302 33.1874 45.0837 33.0409C44.9372 32.8944 44.7384 32.8121 44.5312 32.8121H41.4062C41.3574 32.8074 41.3082 32.8074 41.2594 32.8121ZM25 34.3261V40.6246H9.375C6.76562 40.6246 4.6875 38.5464 4.6875 35.9371V34.3746L25 34.3261ZM29.6875 34.3746H31.25V35.9371H29.6875V34.3746ZM35.9375 34.3746H37.5V35.9371H35.9375V34.3746ZM42.1875 34.3746H43.75V42.1871H42.1875V34.3746ZM28.7594 39.0621C28.5785 39.0966 28.4157 39.194 28.2996 39.3369C28.1836 39.4799 28.1217 39.6592 28.125 39.8433V42.9683C28.125 43.1755 28.2073 43.3742 28.3538 43.5207C28.5003 43.6672 28.699 43.7496 28.9062 43.7496H32.0312C32.2385 43.7496 32.4372 43.6672 32.5837 43.5207C32.7302 43.3742 32.8125 43.1755 32.8125 42.9683V39.8433C32.8125 39.6361 32.7302 39.4374 32.5837 39.2909C32.4372 39.1444 32.2385 39.0621 32.0312 39.0621H28.9062C28.8574 39.0574 28.8082 39.0574 28.7594 39.0621ZM35.0094 39.0621C34.8285 39.0966 34.6657 39.194 34.5496 39.3369C34.4336 39.4799 34.3717 39.6592 34.375 39.8433V42.9683C34.375 43.1755 34.4573 43.3742 34.6038 43.5207C34.7503 43.6672 34.949 43.7496 35.1562 43.7496H38.2812C38.4884 43.7496 38.6872 43.6672 38.8337 43.5207C38.9802 43.3742 39.0625 43.1755 39.0625 42.9683V39.8433C39.0625 39.6361 38.9802 39.4374 38.8337 39.2909C38.6872 39.1444 38.4884 39.0621 38.2812 39.0621H35.1562C35.1074 39.0574 35.0582 39.0574 35.0094 39.0621ZM29.6875 40.6246H31.25V42.1871H29.6875V40.6246ZM35.9375 40.6246H37.5V42.1871H35.9375V40.6246Z" fill="#4F62C1"/>
</svg>
