<svg width="50" height="50" viewBox="0 0 50 50" fill="none" xmlns="http://www.w3.org/2000/svg">
<path d="M7.56875 1.56296C7.43741 1.58756 7.31458 1.64544 7.212 1.73107C7.10941 1.81669 7.0305 1.9272 6.98281 2.05202L1.75781 15.9176C1.71955 15.9627 1.68652 16.012 1.65938 16.0645V16.113C1.60783 16.2034 1.57489 16.3033 1.5625 16.4067V17.188C1.5625 18.9067 2.96875 20.313 4.6875 20.313C5.25469 20.313 5.78906 20.1411 6.25 19.8739V42.188H2.34375C2.13655 42.188 1.93784 42.2703 1.79132 42.4168C1.64481 42.5633 1.5625 42.762 1.5625 42.9692V47.6567C1.56764 47.8258 1.62754 47.9887 1.73321 48.1209C1.83887 48.253 1.98459 48.3473 2.14844 48.3895C2.16387 48.4064 2.18003 48.4225 2.19688 48.438C2.24572 48.4426 2.2949 48.4426 2.34375 48.438H28.8578C28.8901 48.44 28.9224 48.44 28.9547 48.438C28.9714 48.4385 28.988 48.4385 29.0047 48.438H49.2188C49.2836 48.4461 49.3492 48.4461 49.4141 48.438C49.586 48.3937 49.7376 48.2922 49.8441 48.1502C49.9506 48.0082 50.0056 47.8341 50 47.6567V42.9692C50 42.762 49.9177 42.5633 49.7712 42.4168C49.6247 42.2703 49.426 42.188 49.2188 42.188H45.3125V19.8739C45.7813 20.1551 46.2922 20.313 46.875 20.313C47.0891 20.313 47.3063 20.3067 47.5094 20.2645C48.0057 20.1588 48.4691 19.9349 48.8603 19.6117C49.2515 19.2885 49.5588 18.8757 49.7563 18.4083C49.8344 18.2208 49.9094 18.0255 49.9516 17.8223C49.9938 17.6192 50 17.402 50 17.188V16.3583C50.0021 16.3255 50.0021 16.2926 50 16.2598C50.0046 16.211 50.0046 16.1618 50 16.113C49.9861 16.0796 49.9699 16.0472 49.9516 16.0161C49.9521 15.9999 49.9521 15.9838 49.9516 15.9676C49.9244 15.9151 49.8914 15.8658 49.8531 15.8208C49.8377 15.8039 49.8215 15.7878 49.8047 15.7723L44.6281 2.05202L44.5813 2.09889C44.533 1.95159 44.442 1.82198 44.3198 1.72654C44.1977 1.6311 44.0499 1.57416 43.8953 1.56296H7.71406C7.66573 1.55844 7.61708 1.55844 7.56875 1.56296ZM8.25156 3.12546H43.3594L48.4375 16.5536V17.188C48.4375 18.0676 47.7547 18.7505 46.875 18.7505C46.5727 18.758 46.2752 18.6732 46.0223 18.5074C45.7694 18.3416 45.573 18.1026 45.4594 17.8223C45.3704 17.6222 45.3206 17.4068 45.3125 17.188V17.1395C45.313 17.1234 45.313 17.1072 45.3125 17.0911C45.313 17.0744 45.313 17.0577 45.3125 17.0411C45.3145 17.0088 45.3145 16.9765 45.3125 16.9442C45.2971 16.9274 45.2809 16.9112 45.2641 16.8958C45.2661 16.863 45.2661 16.8301 45.2641 16.7973C45.2481 16.7804 45.2314 16.7643 45.2141 16.7489C45.152 16.6505 45.0687 16.5672 44.9703 16.5051C44.9542 16.5046 44.938 16.5046 44.9219 16.5051C44.8903 16.4862 44.8574 16.4695 44.8234 16.4551C44.7029 16.41 44.573 16.3954 44.4455 16.4126C44.3179 16.4298 44.1965 16.4782 44.0922 16.5536C44.0748 16.569 44.0581 16.5851 44.0422 16.602C44.0259 16.6175 44.0102 16.6336 43.9953 16.6505C43.9596 16.6803 43.9267 16.7132 43.8969 16.7489C43.878 16.78 43.8613 16.8124 43.8469 16.8458C43.8306 16.8612 43.8149 16.8774 43.8 16.8942C43.7979 16.927 43.7979 16.9599 43.8 16.9926C43.7995 17.0088 43.7995 17.0249 43.8 17.0411C43.781 17.0727 43.7643 17.1056 43.75 17.1395V17.188C43.75 17.8473 43.3859 18.4192 42.8219 18.6536C42.6344 18.7317 42.4078 18.7505 42.1875 18.7505C41.8852 18.758 41.5877 18.6732 41.3348 18.5074C41.0819 18.3416 40.8855 18.1026 40.7719 17.8223C40.6829 17.6222 40.6331 17.4068 40.625 17.188C40.6271 17.1552 40.6271 17.1223 40.625 17.0895C40.6255 17.0739 40.6255 17.0583 40.625 17.0426C40.6271 17.0099 40.6271 16.977 40.625 16.9442C40.6096 16.9274 40.5934 16.9112 40.5766 16.8958C40.5786 16.863 40.5786 16.8301 40.5766 16.7973C40.5606 16.7804 40.5439 16.7643 40.5266 16.7489C40.4645 16.6505 40.3812 16.5672 40.2828 16.5051C40.2667 16.5046 40.2505 16.5046 40.2344 16.5051C40.2028 16.4862 40.1699 16.4695 40.1359 16.4551C40.0425 16.4205 39.9433 16.4041 39.8438 16.4067C39.6859 16.4102 39.5328 16.4614 39.4047 16.5536C39.3873 16.569 39.3706 16.5851 39.3547 16.602C39.3384 16.6175 39.3227 16.6336 39.3078 16.6505C39.2721 16.6803 39.2392 16.7132 39.2094 16.7489C39.1905 16.78 39.1738 16.8124 39.1594 16.8458C39.1431 16.8612 39.1274 16.8774 39.1125 16.8942C39.1104 16.927 39.1104 16.9599 39.1125 16.9926C39.112 17.0088 39.112 17.0249 39.1125 17.0411C39.0935 17.0727 39.0768 17.1056 39.0625 17.1395C39.062 17.1557 39.062 17.1718 39.0625 17.188C39.0625 17.8473 38.6984 18.4192 38.1344 18.6536C37.9469 18.7317 37.7203 18.7505 37.5 18.7505C37.1977 18.758 36.9002 18.6732 36.6473 18.5074C36.3944 18.3416 36.198 18.1026 36.0844 17.8223C35.9954 17.6222 35.9456 17.4068 35.9375 17.188C35.9396 17.1552 35.9396 17.1223 35.9375 17.0895C35.938 17.0739 35.938 17.0583 35.9375 17.0426C35.9396 17.0099 35.9396 16.977 35.9375 16.9442C35.9221 16.9274 35.9059 16.9112 35.8891 16.8958C35.8911 16.863 35.8911 16.8301 35.8891 16.7973C35.8731 16.7804 35.8564 16.7643 35.8391 16.7489C35.777 16.6505 35.6937 16.5672 35.5953 16.5051C35.5792 16.5046 35.563 16.5046 35.5469 16.5051C35.5153 16.4862 35.4824 16.4695 35.4484 16.4551C35.355 16.4205 35.2558 16.4041 35.1563 16.4067C34.9984 16.4102 34.8453 16.4614 34.7172 16.5536C34.6998 16.569 34.6831 16.5851 34.6672 16.602C34.6509 16.6175 34.6352 16.6336 34.6203 16.6505C34.5846 16.6803 34.5517 16.7132 34.5219 16.7489C34.503 16.78 34.4863 16.8124 34.4719 16.8458C34.4556 16.8612 34.4399 16.8774 34.425 16.8942C34.4229 16.927 34.4229 16.9599 34.425 16.9926C34.4245 17.0088 34.4245 17.0249 34.425 17.0411C34.406 17.0727 34.3893 17.1056 34.375 17.1395C34.3745 17.1557 34.3745 17.1718 34.375 17.188C34.375 17.8473 34.0109 18.4192 33.4469 18.6536C33.2594 18.7317 33.0328 18.7505 32.8125 18.7505C32.5102 18.758 32.2127 18.6732 31.9598 18.5074C31.7069 18.3416 31.5105 18.1026 31.3969 17.8223C31.3079 17.6222 31.2581 17.4068 31.25 17.188C31.2521 17.1552 31.2521 17.1223 31.25 17.0895C31.2505 17.0739 31.2505 17.0583 31.25 17.0426C31.2521 17.0099 31.2521 16.977 31.25 16.9442C31.2346 16.9274 31.2184 16.9112 31.2016 16.8958C31.2036 16.863 31.2036 16.8301 31.2016 16.7973C31.1856 16.7804 31.1689 16.7643 31.1516 16.7489C31.0895 16.6505 31.0062 16.5672 30.9078 16.5051C30.8917 16.5046 30.8755 16.5046 30.8594 16.5051C30.8278 16.4862 30.7949 16.4695 30.7609 16.4551C30.6675 16.4205 30.5683 16.4041 30.4688 16.4067C30.3109 16.4102 30.1578 16.4614 30.0297 16.5536C30.0123 16.569 29.9956 16.5851 29.9797 16.602C29.9634 16.6175 29.9477 16.6336 29.9328 16.6505C29.8971 16.6803 29.8642 16.7132 29.8344 16.7489C29.8155 16.78 29.7988 16.8124 29.7844 16.8458C29.7681 16.8612 29.7524 16.8774 29.7375 16.8942C29.7354 16.927 29.7354 16.9599 29.7375 16.9926C29.737 17.0088 29.737 17.0249 29.7375 17.0411C29.7185 17.0727 29.7018 17.1056 29.6875 17.1395C29.687 17.1557 29.687 17.1718 29.6875 17.188C29.6875 17.8473 29.3234 18.4192 28.7594 18.6536C28.7095 18.6644 28.6609 18.6801 28.6141 18.7005C28.4625 18.7473 28.2922 18.7505 28.125 18.7505C27.8227 18.758 27.5252 18.6732 27.2723 18.5074C27.0194 18.3416 26.823 18.1026 26.7094 17.8223C26.6204 17.6222 26.5706 17.4068 26.5625 17.188C26.5646 17.1552 26.5646 17.1223 26.5625 17.0895C26.563 17.0739 26.563 17.0583 26.5625 17.0426C26.5646 17.0099 26.5646 16.977 26.5625 16.9442C26.5471 16.9274 26.5309 16.9112 26.5141 16.8958C26.5161 16.863 26.5161 16.8301 26.5141 16.7973C26.4981 16.7804 26.4814 16.7643 26.4641 16.7489C26.402 16.6505 26.3187 16.5672 26.2203 16.5051C26.2042 16.5046 26.188 16.5046 26.1719 16.5051C26.1403 16.4862 26.1074 16.4695 26.0734 16.4551C25.98 16.4205 25.8808 16.4041 25.7813 16.4067C25.6234 16.4102 25.4703 16.4614 25.3422 16.5536C25.3248 16.569 25.3081 16.5851 25.2922 16.602C25.2759 16.6175 25.2602 16.6336 25.2453 16.6505C25.2096 16.6803 25.1767 16.7132 25.1469 16.7489C25.128 16.78 25.1113 16.8124 25.0969 16.8458C25.0806 16.8612 25.0649 16.8774 25.05 16.8942C25.0479 16.927 25.0479 16.9599 25.05 16.9926C25.0495 17.0088 25.0495 17.0249 25.05 17.0411C25.031 17.0727 25.0143 17.1056 25 17.1395C24.9995 17.1557 24.9995 17.1718 25 17.188C25 17.8473 24.6359 18.4192 24.0719 18.6536C23.8844 18.7317 23.6578 18.7505 23.4375 18.7505C23.1352 18.758 22.8377 18.6732 22.5848 18.5074C22.3319 18.3416 22.1355 18.1026 22.0219 17.8223C21.9329 17.6222 21.8831 17.4068 21.875 17.188C21.8771 17.1552 21.8771 17.1223 21.875 17.0895C21.8755 17.0739 21.8755 17.0583 21.875 17.0426C21.8771 17.0099 21.8771 16.977 21.875 16.9442C21.8596 16.9274 21.8434 16.9112 21.8266 16.8958C21.8286 16.863 21.8286 16.8301 21.8266 16.7973C21.8111 16.7805 21.795 16.7643 21.7781 16.7489C21.7156 16.6503 21.6318 16.567 21.5328 16.5051C21.5167 16.5046 21.5005 16.5046 21.4844 16.5051C21.4528 16.4862 21.4199 16.4695 21.3859 16.4551C21.2925 16.4205 21.1933 16.4041 21.0938 16.4067C20.9359 16.4102 20.7828 16.4614 20.6547 16.5536C20.6378 16.569 20.6217 16.5852 20.6063 16.602C20.5889 16.6174 20.5722 16.6336 20.5563 16.6505C20.5211 16.6803 20.4887 16.7133 20.4594 16.7489C20.441 16.78 20.4248 16.8124 20.4109 16.8458C20.3936 16.8612 20.3769 16.8773 20.3609 16.8942C20.3589 16.927 20.3589 16.9599 20.3609 16.9926C20.3604 17.0088 20.3604 17.0249 20.3609 17.0411C20.3425 17.0727 20.3263 17.1056 20.3125 17.1395C20.312 17.1557 20.312 17.1718 20.3125 17.188C20.3125 17.8473 19.9484 18.4192 19.3844 18.6536C19.1969 18.7317 18.9703 18.7505 18.75 18.7505C18.4477 18.758 18.1502 18.6732 17.8973 18.5074C17.6444 18.3416 17.448 18.1026 17.3344 17.8223C17.2454 17.6222 17.1956 17.4068 17.1875 17.188C17.1896 17.1552 17.1896 17.1223 17.1875 17.0895C17.188 17.0739 17.188 17.0583 17.1875 17.0426C17.1896 17.0099 17.1896 16.977 17.1875 16.9442C17.1721 16.9274 17.1559 16.9112 17.1391 16.8958C17.1411 16.863 17.1411 16.8301 17.1391 16.7973C17.1236 16.7805 17.1075 16.7643 17.0906 16.7489C17.0281 16.6503 16.9443 16.567 16.8453 16.5051C16.8292 16.5046 16.813 16.5046 16.7969 16.5051C16.7653 16.4862 16.7324 16.4695 16.6984 16.4551C16.605 16.4205 16.5058 16.4041 16.4063 16.4067C16.2484 16.4102 16.0953 16.4614 15.9672 16.5536C15.9503 16.569 15.9342 16.5852 15.9188 16.602C15.9014 16.6174 15.8847 16.6336 15.8688 16.6505C15.8336 16.6803 15.8012 16.7133 15.7719 16.7489C15.7535 16.78 15.7373 16.8124 15.7234 16.8458C15.7061 16.8612 15.6894 16.8773 15.6734 16.8942C15.6714 16.927 15.6714 16.9599 15.6734 16.9926C15.6729 17.0088 15.6729 17.0249 15.6734 17.0411C15.655 17.0727 15.6388 17.1056 15.625 17.1395C15.6245 17.1557 15.6245 17.1718 15.625 17.188C15.625 17.8473 15.2609 18.4192 14.6969 18.6536C14.5094 18.7317 14.2828 18.7505 14.0625 18.7505C13.7602 18.758 13.4627 18.6732 13.2098 18.5074C12.9569 18.3416 12.7605 18.1026 12.6469 17.8223C12.5579 17.6222 12.5081 17.4068 12.5 17.188C12.5021 17.1552 12.5021 17.1223 12.5 17.0895C12.5005 17.0739 12.5005 17.0583 12.5 17.0426C12.5021 17.0099 12.5021 16.977 12.5 16.9442C12.4846 16.9274 12.4684 16.9112 12.4516 16.8958C12.4536 16.863 12.4536 16.8301 12.4516 16.7973C12.4356 16.7804 12.4189 16.7643 12.4016 16.7489C12.3395 16.6505 12.2562 16.5672 12.1578 16.5051C12.1417 16.5046 12.1255 16.5046 12.1094 16.5051C12.0778 16.4862 12.0449 16.4695 12.0109 16.4551C11.9175 16.4205 11.8183 16.4041 11.7188 16.4067C11.5609 16.4102 11.4078 16.4614 11.2797 16.5536C11.2623 16.569 11.2456 16.5851 11.2297 16.602C11.2134 16.6175 11.1977 16.6336 11.1828 16.6505C11.1471 16.6803 11.1142 16.7132 11.0844 16.7489C11.0655 16.78 11.0488 16.8124 11.0344 16.8458C11.0181 16.8612 11.0024 16.8774 10.9875 16.8942C10.9854 16.927 10.9854 16.9599 10.9875 16.9926C10.987 17.0088 10.987 17.0249 10.9875 17.0411C10.9685 17.0727 10.9518 17.1056 10.9375 17.1395C10.937 17.1557 10.937 17.1718 10.9375 17.188C10.9375 17.8473 10.5734 18.4192 10.0094 18.6536C9.82188 18.7317 9.59531 18.7505 9.375 18.7505C9.07266 18.758 8.77521 18.6732 8.52229 18.5074C8.26938 18.3416 8.07301 18.1026 7.95938 17.8223C7.87044 17.6222 7.82059 17.4068 7.8125 17.188V17.1395C7.813 17.1234 7.813 17.1072 7.8125 17.0911C7.81303 17.0744 7.81303 17.0577 7.8125 17.0411C7.79514 16.8778 7.7268 16.7242 7.61719 16.602C7.60105 16.6015 7.58489 16.6015 7.56875 16.602C7.56925 16.5859 7.56925 16.5697 7.56875 16.5536C7.55209 16.553 7.53541 16.553 7.51875 16.5536C7.44718 16.4901 7.36456 16.4403 7.275 16.4067C7.24274 16.4047 7.21039 16.4047 7.17813 16.4067C7.13089 16.3857 7.08169 16.3695 7.03125 16.3583C6.9058 16.3602 6.78266 16.3923 6.67224 16.4518C6.56182 16.5114 6.46737 16.5967 6.39688 16.7005C6.39641 16.7161 6.39641 16.7317 6.39688 16.7473C6.37946 16.7632 6.36278 16.7799 6.34688 16.7973C6.32898 16.829 6.31331 16.8619 6.3 16.8958C6.29953 16.9114 6.29953 16.927 6.3 16.9426C6.29947 16.9593 6.29947 16.976 6.3 16.9926C6.28103 17.0242 6.26432 17.0571 6.25 17.0911C6.24953 17.1067 6.24953 17.1223 6.25 17.138C6.24947 17.1546 6.24947 17.1713 6.25 17.188C6.25 17.8473 5.88594 18.4192 5.32188 18.6536C5.13438 18.7317 4.90781 18.7505 4.6875 18.7505C4.38516 18.758 4.08771 18.6732 3.83479 18.5074C3.58187 18.3416 3.38551 18.1026 3.27188 17.8223C3.18294 17.6222 3.13309 17.4068 3.125 17.188V16.5536L8.25156 3.12546ZM11.7188 19.2395C11.7656 19.2911 11.8156 19.3348 11.8656 19.3848C12.4313 19.9536 13.2031 20.313 14.0625 20.313C14.9891 20.313 15.8328 19.8848 16.4063 19.238C16.4531 19.2911 16.5031 19.3348 16.5531 19.3848C17.1188 19.952 17.8906 20.313 18.75 20.313C19.6766 20.313 20.5203 19.8848 21.0938 19.238C21.1406 19.2911 21.1906 19.3348 21.2406 19.3848C21.8063 19.952 22.5781 20.313 23.4375 20.313C24.3641 20.313 25.2078 19.8848 25.7813 19.238C25.8281 19.2911 25.8781 19.3348 25.9281 19.3848C26.4938 19.952 27.2656 20.313 28.125 20.313H28.1734V42.188H7.8125V19.8739C8.28125 20.1551 8.79219 20.313 9.375 20.313C10.3016 20.313 11.1453 19.8864 11.7188 19.2395ZM30.4688 19.2395C30.5156 19.2911 30.5656 19.3348 30.6156 19.3848C31.1813 19.952 31.9531 20.313 32.8125 20.313C33.7391 20.313 34.5828 19.8848 35.1563 19.238C35.2031 19.2911 35.2531 19.3348 35.3031 19.3848C35.8688 19.952 36.6406 20.313 37.5 20.313C38.4266 20.313 39.2703 19.8848 39.8438 19.238C39.8906 19.2911 39.9406 19.3348 39.9906 19.3848C40.5563 19.952 41.3281 20.313 42.1875 20.313C42.7547 20.313 43.2891 20.1411 43.75 19.8739V42.9208C43.7495 42.9369 43.7495 42.9531 43.75 42.9692V43.7505H42.1875V28.077L41.4063 28.1255H32.0313C31.8241 28.1255 31.6253 28.2078 31.4788 28.3543C31.3323 28.5008 31.25 28.6995 31.25 28.9067V43.7505H29.7359V19.8739C30.0125 19.7083 30.2563 19.4786 30.4688 19.2395ZM13.3781 23.0942L10.2531 29.3442L11.6703 30.0286L14.7953 23.7786L13.3781 23.0942ZM16.5031 26.2192L12.5969 34.0317L14.0141 34.7161L17.9203 26.9036L16.5031 26.2192ZM32.8125 29.688H40.625V43.7505H32.8125V29.688ZM34.375 34.3755V37.5005H35.9375V34.3755H34.375ZM3.125 43.7505H28.125V46.8755H3.125V43.7505ZM45.3125 43.7505H48.4375V46.8755H45.3125V44.727C45.3207 44.6622 45.3207 44.5966 45.3125 44.5317V43.7505ZM29.7359 45.313H43.75V46.8755H29.7359V45.313Z" fill="#4F62C1"/>
</svg>
