<svg width="50" height="50" viewBox="0 0 50 50" fill="none" xmlns="http://www.w3.org/2000/svg">
<path d="M24.4625 4.6875L23.925 4.73594H23.8781L22.8516 4.83438L22.0703 4.88281L22.2172 6.44531L22.9984 6.34687L23.975 6.3L24.5125 6.25H25.2937L25.2437 4.6875H24.4625ZM26.9531 4.78594L26.7578 6.34844L27.5391 6.44531H27.8797L29.0047 6.68906L29.7859 6.83594L30.0781 5.27344L29.2969 5.12656L28.125 4.93125H28.0766L27.6859 4.88281L26.9531 4.78594ZM20.4094 5.17656L19.6281 5.42031L18.5547 5.7625H18.5062L18.1156 5.90781L17.3828 6.15156L17.9203 7.61719L18.6531 7.37344L18.9938 7.22656L20.1172 6.88438L20.85 6.68906L20.4094 5.17656ZM31.6906 5.81094L31.1031 7.275L31.8359 7.56875L32.6656 7.90937H32.7156L33.2031 8.15469L33.9359 8.49531L34.6187 7.07969L33.8875 6.73906L33.35 6.49375L33.3 6.44531L32.4219 6.10312L31.6906 5.81094ZM15.8688 6.88438L15.1859 7.22656L14.8438 7.42188H14.7953L13.7703 8.05625L13.1344 8.49688L13.9641 9.81406L14.6016 9.375L15.625 8.78906L15.9187 8.59375L16.6016 8.25156L15.8688 6.88438ZM36.0344 7.95937L35.1562 9.27656L35.8406 9.71719L35.8875 9.76562H35.9375L36.9141 10.4984L36.9625 10.5953L37.5484 11.0844L38.575 9.9125L37.9891 9.42344L37.9391 9.32656H37.8906L36.8656 8.49531H36.8156L36.6703 8.39844L36.0344 7.95937ZM11.7703 9.57031L11.2313 10.1078L10.5484 10.7422L10.5 10.7906L10.0594 11.2313L9.52344 11.8172L10.6953 12.8906L11.2313 12.3047L11.6219 11.8656L11.6719 11.8156L12.3062 11.2297L12.8438 10.6937L11.7703 9.57031ZM39.7969 11.0844L38.625 12.1094L39.1125 12.6953L39.6016 13.2328L40.0891 13.8672L40.5297 14.5016L41.7984 13.5734L41.3094 12.9391L40.8219 12.2562L40.7734 12.2062L40.3328 11.6703L39.7969 11.0844ZM8.54687 13.1344L8.05781 13.7688L7.96094 13.9656L7.91094 14.0125L7.22813 15.1375L6.8375 15.8203L8.15625 16.6016L8.59531 15.9672L9.27969 14.7953L9.375 14.6484L9.81406 14.0141L8.54687 13.1344ZM42.6766 14.9906L41.3094 15.7234L41.6531 16.4062L41.7 16.4547L42.0906 17.1391L43.4578 16.3578L43.0672 15.6734H43.0203L42.6766 14.9906ZM3.125 17.3344V32.5688H9.86406C13.2969 32.5688 15.4297 30.9781 15.4297 28.3687C15.4297 26.3266 14.2016 24.8594 12.1578 24.5125C13.8125 24.1219 14.8438 22.8594 14.8438 21.1406C14.8438 18.7719 12.8687 17.3328 9.71719 17.3328L3.125 17.3344ZM18.1641 17.3344V26.2703C18.1641 30.2469 20.6484 32.6656 24.7563 32.6656C28.8641 32.6656 31.3969 30.2469 31.3969 26.2703V17.3328H28.8078V26.2703C28.8078 28.8562 27.2828 30.3719 24.8047 30.3719C22.3047 30.3719 20.7031 28.8344 20.7031 26.2703V17.3328L18.1641 17.3344ZM33.0562 17.3344L38.7703 27.5875V32.5688H41.3094V27.4906L46.875 17.3344H44.2875L39.9906 24.7563L35.6437 17.3344H33.0562ZM5.7125 19.6297H9.61875C11.25 19.6297 12.2078 20.3 12.2078 21.5828C12.2078 22.8641 11.25 23.6328 9.61875 23.6328H5.7125V19.6297ZM5.7125 25.8797H9.61875C11.6188 25.8797 12.7937 26.7281 12.7937 28.0766C12.7937 29.5109 11.6188 30.2734 9.61875 30.2734H5.7125V25.8797ZM43.6031 27.0516L43.5547 27.8328L43.5062 27.8797V27.9297L43.2609 29.2969L43.1156 30.0781L44.6281 30.3719L44.775 29.5906L45.0687 28.125V28.0266L45.1656 27.2453L43.6031 27.0516ZM42.6266 31.3953L42.3344 32.1297L42.2844 32.275L41.6984 33.4969L41.3578 34.2281L42.7734 34.8641L43.1156 34.1797L43.7016 32.9094L43.75 32.8625L43.7984 32.7141L44.0438 31.9828L42.6266 31.3953ZM8.25156 33.4969L6.93438 34.2281L7.275 34.9125L7.76406 35.6938V35.7422L8.15469 36.3281L8.59375 36.9625L9.86406 36.0844L9.42344 35.4484L9.08281 34.9125L8.64219 34.1797L8.25156 33.4969ZM40.5766 35.4L40.1359 36.0844L40.0391 36.1812V36.2312L39.2094 37.2562L38.7203 37.8422L39.9422 38.8187L40.4297 38.2328L41.2594 37.1578L41.3094 37.1094L41.4062 36.9625L41.8453 36.2797L40.5766 35.4ZM10.7422 37.2078L9.61875 38.2812L10.1562 38.8672L10.8406 39.6H10.8875L11.3281 39.9906L11.9141 40.5266L12.9391 39.3547L12.3531 38.8187L11.9625 38.4766L11.2797 37.7922L10.7422 37.2078ZM37.6469 38.8172L37.0609 39.3563L36.9625 39.4531H36.9141L35.8891 40.2828L35.2531 40.7234L36.1813 41.9922L36.8172 41.5031L37.9391 40.675L37.9891 40.625L38.0859 40.5266L38.6719 39.9906L37.6469 38.8172ZM14.0625 40.2344L13.2328 41.5531L13.8672 41.9922L14.7469 42.5297L14.7938 42.5781L15.2828 42.8219L15.9672 43.1641L16.7 41.7969L16.0156 41.4547L15.5766 41.2109L15.5281 41.1625L14.7469 40.6734L14.0625 40.2344ZM33.9844 41.4547L33.3 41.7969L33.1547 41.8953L31.9328 42.4313L31.2016 42.725L31.8359 44.1406L32.5688 43.8469L33.7891 43.3109L33.8375 43.2609L34.0328 43.1641L34.7172 42.8219L33.9844 41.4547ZM18.0172 42.4313L17.5297 43.8969L18.2625 44.1406L19.1891 44.4828H19.2375L19.775 44.6281L20.5562 44.8234L20.9469 43.3109L20.1656 43.1156L19.7266 42.9688L18.75 42.675L18.0172 42.4313ZM29.8344 43.1156L29.1016 43.3109L28.7594 43.3594L27.5875 43.5547L26.8562 43.7016L27.1 45.2141L27.8313 45.1172L29.0531 44.9219L29.1016 44.8734L29.4438 44.8234L30.225 44.6281L29.8344 43.1156ZM22.3625 43.5547L22.2172 45.1172L22.9984 45.2156L24.0234 45.3125H25.3906V43.75H24.1203L23.1453 43.6516L22.3625 43.5547Z" fill="#4F62C1"/>
</svg>
