<svg width="28" height="25" viewBox="0 0 28 25" fill="none" xmlns="http://www.w3.org/2000/svg">
<path d="M22.5167 8.41949V13.5695C22.5167 16.6495 20.4633 17.9695 17.3833 17.9695H7.12832C6.60332 17.9695 6.10166 17.9295 5.63499 17.8395C5.34332 17.7995 5.06333 17.7295 4.80667 17.6495C3.05667 17.0895 1.995 15.7895 1.995 13.5695V8.41949C1.995 5.33949 4.04832 4.01953 7.12832 4.01953H17.3833C19.9967 4.01953 21.875 4.96953 22.3767 7.13953C22.4583 7.53953 22.5167 7.94949 22.5167 8.41949Z" stroke="#4F62C1" stroke-width="1.5" stroke-miterlimit="10" stroke-linecap="round" stroke-linejoin="round"/>
<path d="M26.0179 11.4196V16.5696C26.0179 19.6496 23.9646 20.9696 20.8846 20.9696H10.6296C9.76626 20.9696 8.9846 20.8697 8.30794 20.6497C6.9196 20.2097 5.97459 19.2997 5.63626 17.8397C6.10293 17.9297 6.60459 17.9696 7.12959 17.9696H17.3846C20.4646 17.9696 22.5179 16.6496 22.5179 13.5696V8.41962C22.5179 7.94962 22.4713 7.52965 22.3779 7.13965C24.5946 7.53965 26.0179 8.87962 26.0179 11.4196Z" stroke="#4F62C1" stroke-width="1.5" stroke-miterlimit="10" stroke-linecap="round" stroke-linejoin="round"/>
<path d="M12.2482 13.6394C13.9492 13.6394 15.3282 12.4574 15.3282 10.9994C15.3282 9.54136 13.9492 8.35938 12.2482 8.35938C10.5472 8.35938 9.16818 9.54136 9.16818 10.9994C9.16818 12.4574 10.5472 13.6394 12.2482 13.6394Z" stroke="#4F62C1" stroke-width="1.5" stroke-miterlimit="10" stroke-linecap="round" stroke-linejoin="round"/>
<path d="M5.57666 8.7998V13.1998" stroke="#4F62C1" stroke-width="1.5" stroke-miterlimit="10" stroke-linecap="round" stroke-linejoin="round"/>
<path d="M18.9253 8.7998V13.1998" stroke="#4F62C1" stroke-width="1.5" stroke-miterlimit="10" stroke-linecap="round" stroke-linejoin="round"/>
</svg>
