<svg width="24" height="25" viewBox="0 0 24 25" fill="none" xmlns="http://www.w3.org/2000/svg">
<path d="M2 13.1104H19" stroke="#4F62C1" stroke-width="1.5" stroke-miterlimit="10" stroke-linecap="round" stroke-linejoin="round"/>
<path d="M19 10.7798V17.9298C18.97 20.7798 18.19 21.4998 15.22 21.4998H5.78003C2.76003 21.4998 2 20.7498 2 17.7698V10.7798C2 8.0798 2.63 7.20981 5 7.06981C5.24 7.05981 5.50003 7.0498 5.78003 7.0498H15.22C18.24 7.0498 19 7.7998 19 10.7798Z" stroke="#4F62C1" stroke-width="1.5" stroke-linecap="round" stroke-linejoin="round"/>
<path d="M22 7.23V14.22C22 16.92 21.37 17.79 19 17.93V10.78C19 7.8 18.24 7.05 15.22 7.05H5.78003C5.50003 7.05 5.24 7.06 5 7.07C5.03 4.22 5.81003 3.5 8.78003 3.5H18.22C21.24 3.5 22 4.25 22 7.23Z" stroke="#4F62C1" stroke-width="1.5" stroke-linecap="round" stroke-linejoin="round"/>
<path d="M5.25 18.3096H6.96997" stroke="#4F62C1" stroke-width="1.5" stroke-miterlimit="10" stroke-linecap="round" stroke-linejoin="round"/>
<path d="M9.10999 18.3096H12.55" stroke="#4F62C1" stroke-width="1.5" stroke-miterlimit="10" stroke-linecap="round" stroke-linejoin="round"/>
</svg>
